# xmcd
#
# Track frame offsets:
#	150
#	15117
#	25678
#	39305
#	49229
#	57511
#	67593
#	82424
#	90494
#	99809
#	113288
#
# Disc length: 1692 seconds
#
# Revision: 0
# Processed by: cddbd v1.5.2PL0 Copyright (c) Steve Scherf et al.
# Submitted via: audiograbber 1.83.01
#
DISCID=70069a0b
DTITLE=Willie Nelson - Face Of A Fighter [CD3/5)
DYEAR=2008
DGENRE=Country
TTITLE0=Face Of A Fighter
TTITLE1=Blame It On The Time
TTITLE2=Everything But You
TTITLE3=Broken Promises
TTITLE4=Slow Down Old World
TTITLE5=Healing Hands Of Time
TTITLE6=And So Will You My Love
TTITLE7=Things To Remember
TTITLE8=One Step Beyond
TTITLE9=Undo The Right
TTITLE10=Home Is Where You're Happy
EXTD=CD 3 of a set of five CDs with different album-titles:\nAlways On My Mind 
EXTD=(CD1/5]\nTo All The Girls I've Loved Before [CD2/5]\nFace Of A Fighter [CD
EXTD=3/5]\nThe Last Letter [CD4/5]\nCrazy [CD5/5)
EXTT0=
EXTT1=
EXTT2=
EXTT3=
EXTT4=
EXTT5=
EXTT6=
EXTT7=
EXTT8=
EXTT9=
EXTT10=
PLAYORDER=
